<?xml version="1.0" standalone="no"?>
<!DOCTYPE svg PUBLIC "-//W3C//DTD SVG 20010904//EN"
 "http://www.w3.org/TR/2001/REC-SVG-20010904/DTD/svg10.dtd">
<svg version="1.0" xmlns="http://www.w3.org/2000/svg"
 width="212.000000pt" height="212.000000pt" viewBox="0 0 212.000000 212.000000"
 preserveAspectRatio="xMidYMid meet">
<metadata>
Created by potrace 1.11, written by Peter Selinger 2001-2013
</metadata>
<g transform="translate(0.000000,212.000000) scale(0.100000,-0.100000)"
fill="#000000" stroke="none">
<path d="M1675 1923 c-126 -64 -254 -126 -283 -138 l-53 -22 -92 20 c-109 23
-265 25 -377 5 -74 -14 -76 -14 -135 13 -33 15 -108 41 -167 59 -59 17 -163
55 -230 85 -68 29 -124 51 -126 50 -6 -6 70 -249 90 -288 10 -21 36 -56 56
-79 20 -23 32 -43 26 -45 -48 -16 -153 -92 -219 -158 -60 -60 -90 -99 -117
-155 -58 -119 -58 -118 14 -167 110 -74 171 -97 273 -101 66 -3 100 0 127 11
35 15 37 14 43 -3 3 -11 29 -54 57 -97 28 -43 66 -109 84 -146 37 -77 38 -65
-22 -243 -80 -238 -16 -369 206 -425 84 -21 396 -19 480 4 84 23 147 62 185
116 26 37 30 53 34 124 3 75 0 92 -39 208 -33 97 -41 134 -36 161 4 20 36 85
73 145 36 59 73 122 82 138 16 29 18 30 51 18 48 -16 151 -16 235 2 95 20 215
65 215 80 0 21 -50 147 -83 210 -42 80 -164 201 -255 255 l-72 42 37 51 c29
39 183 362 183 383 0 9 -24 -2 -245 -113z m-12 -165 c-10 -18 -53 -69 -95
-113 -43 -44 -78 -84 -78 -90 0 -6 38 -23 85 -39 104 -35 218 -108 279 -178
50 -57 110 -163 101 -177 -9 -15 -138 -41 -201 -41 l-57 0 -128 127 c-71 70
-132 124 -136 120 -7 -8 3 -44 35 -124 l21 -52 -30 11 c-16 6 -58 8 -93 6
-104 -6 -162 -64 -173 -172 -10 -103 37 -184 122 -208 22 -6 41 -12 43 -13 1
-1 -5 -21 -13 -45 -23 -66 -18 -112 25 -241 52 -154 54 -214 9 -258 -51 -51
-118 -66 -314 -66 -199 0 -267 15 -322 70 -45 45 -44 95 2 229 59 174 61 201
21 297 -5 12 0 18 21 22 83 18 132 88 133 190 0 72 -17 113 -63 154 -42 37
-85 47 -162 41 -30 -3 -55 -2 -55 0 0 3 11 39 25 79 14 41 23 79 19 84 -4 7
-59 -44 -133 -120 l-126 -131 -62 0 c-66 0 -155 27 -195 60 l-23 18 20 39 c11
21 51 70 90 108 78 79 182 139 303 175 91 28 93 43 11 90 -34 19 -80 56 -104
81 -41 44 -72 89 -60 89 3 0 53 -14 113 -31 111 -33 193 -66 226 -91 16 -13
28 -13 80 -2 166 34 234 36 361 12 180 -33 179 -33 345 49 80 39 146 72 148
72 2 1 -5 -14 -15 -31z"/>
</g>
</svg>
